<svg xmlns="http://www.w3.org/2000/svg" version="1.1" xmlns:xlink="http://www.w3.org/1999/xlink" xmlns:svgjs="http://svgjs.dev/svgjs" width="1500" height="935" viewBox="0 0 1500 935"><g transform="matrix(1,0,0,1,-0.9090909090909918,0.3785425101214628)"><svg viewBox="0 0 396 247" data-background-color="#ececea" preserveAspectRatio="xMidYMid meet" height="935" width="1500" xmlns="http://www.w3.org/2000/svg" xmlns:xlink="http://www.w3.org/1999/xlink"><g id="tight-bounds" transform="matrix(1,0,0,1,0.2400000000000091,-0.09999999999999432)"><svg viewBox="0 0 395.52 247.2" height="247.2" width="395.52"><g><svg></svg></g><g><svg viewBox="0 0 395.52 247.2" height="247.2" width="395.52"><g transform="matrix(1,0,0,1,75.54432,96.48578475446965)"><svg viewBox="0 0 244.43135999999998 54.22843049106069" height="54.22843049106069" width="244.43135999999998"><g><svg viewBox="0 0 244.43135999999998 54.22843049106069" height="54.22843049106069" width="244.43135999999998"><g><svg viewBox="0 0 406.51307826379394 90.18714377866762" height="54.22843049106069" width="244.43135999999998"><g transform="matrix(1,0,0,1,162.08171826379396,5.750168053717381)"><svg viewBox="0 0 244.43135999999998 78.68680767123286" height="78.68680767123286" width="244.43135999999998"><g id="textblocktransform"><svg viewBox="0 0 244.43135999999998 78.68680767123286" height="78.68680767123286" width="244.43135999999998" id="textblock"><g><svg viewBox="0 0 244.43135999999998 78.68680767123286" height="78.68680767123286" width="244.43135999999998"><g transform="matrix(1,0,0,1,0,0)"><svg width="244.43135999999998" viewBox="4.5 -37 116.79 37.6" height="78.68680767123286" data-palette-color="#0c5ab4"><path d="M25.3 0L4.5 0 4.5-35 9.25-35 9.25-4.25 25.3-4.25 25.3 0ZM34.05 0L29.55 0 29.55-26 34.05-26 34.05 0ZM31.8-30.45L31.8-30.45Q30.5-30.45 29.57-31.4 28.65-32.35 28.65-33.6L28.65-33.6Q28.65-35.05 29.5-35.9 30.35-36.75 31.8-36.75L31.8-36.75Q33.1-36.75 34.02-35.83 34.95-34.9 34.95-33.6L34.95-33.6Q34.95-32.2 34.1-31.33 33.25-30.45 31.8-30.45ZM46.55 0L42.05 0 42.05-26 46.4-26 46.4-21.65Q47.8-23.75 49.97-25.18 52.15-26.6 55.15-26.6L55.15-26.6Q59.55-26.6 61.72-23.95 63.9-21.3 63.9-16.95L63.9-16.95 63.9 0 59.4 0 59.4-16.45Q59.4-19.25 58.07-20.95 56.75-22.65 54.4-22.65L54.4-22.65Q52.09-22.65 50.05-21.03 48-19.4 46.55-17.2L46.55-17.2 46.55 0ZM92.69-2.5L89.59 0.5 76.14-13.35 76.14 0 71.64 0 71.64-37 76.14-37 76.14-15.85 87.89-26.5 90.49-23.65 80.44-14.75 92.69-2.5ZM106.39 0.6L106.39 0.6Q103.14 0.6 100.49-1.05 97.84-2.7 96.27-5.73 94.69-8.75 94.69-12.85L94.69-12.85Q94.69-16.75 96.27-19.85 97.84-22.95 100.62-24.78 103.39-26.6 106.99-26.6L106.99-26.6Q109.24-26.6 111.07-25.83 112.89-25.05 114.24-23.9L114.24-23.9 114.24-26 118.34-26 118.34-6.3Q118.34-4.4 119.27-3.83 120.19-3.25 121.29-3.25L121.29-3.25 120.34 0.25Q115.54 0.25 114.54-3.65L114.54-3.65Q113.39-2.05 111.42-0.73 109.44 0.6 106.39 0.6ZM107.39-3.4L107.39-3.4Q109.29-3.4 110.99-4.33 112.69-5.25 113.84-6.65L113.84-6.65 113.84-20.6Q112.49-21.55 110.87-22.13 109.24-22.7 107.44-22.7L107.44-22.7Q105.04-22.7 103.22-21.48 101.39-20.25 100.34-18.07 99.29-15.9 99.29-13L99.29-13Q99.29-10.2 100.34-8.03 101.39-5.85 103.24-4.63 105.09-3.4 107.39-3.4Z" opacity="1" transform="matrix(1,0,0,1,0,0)" fill="#0c5ab4" class="wordmark-text-0" data-fill-palette-color="primary" id="text-0"></path></svg></g></svg></g></svg></g></svg></g><g><svg viewBox="0 0 143.50565145599998 90.18714377866762" height="90.18714377866762" width="143.50565145599998"><g><svg xmlns="http://www.w3.org/2000/svg" xmlns:xlink="http://www.w3.org/1999/xlink" version="1.1" x="0" y="0" viewBox="1.0932097337367686 24.819964031104185 95.30679026626323 59.896227846206024" style="enable-background:new 0 0 100 100;" xml:space="preserve" height="90.18714377866762" width="143.50565145599998" class="icon-icon-0" data-fill-palette-color="accent" id="icon-0"><g fill="#b3cdf8" data-fill-palette-color="accent"><path class="" d="M96.4 36.2c0 5.7-3.5 11.6-8.6 12.6-5.7 1.1-8.3 4.9-10.9 9.3-3.1 5.2-5.4 10.6-5.1 16.9 0.2 5.2-3.4 9.3-8.1 9.7C59 85 55 81.1 54.5 75.6c-1-10.9-8.4-16.1-17.5-19.5-8.5-3.3-15.2 0.4-20.7 6.8-1.8 2.1-3.4 4.5-5 6.8-1.7 2.5-3.9 3.5-6.9 2.5-2.4-0.8-3.4-2.7-3.3-5 0.1-2.8 1.7-4.7 4.4-5.3 10.3-2.5 18-8.2 22.8-17.7 1.4-2.7 4-4 7.1-3.6 3.4 0.4 5.5 2.6 6.1 5.8 1.7 8.8 8.2 13.9 14.8 18.6 4.3 3.1 8.8 2.4 12.7-1.3 3.9-3.7 5.5-8.6 6.8-13.6 0.7-2.5-1.3-3.9-2.4-5.7-3.6-5.6-2.2-13.7 3-17.5 5-3.7 13.3-2.3 17.5 2.9C95.6 31.7 96.2 34.1 96.4 36.2zM84 27c-5.1-0.1-9.5 4.4-9.6 9.9-0.1 5.2 4.2 9.6 9.3 9.6 5.3 0 10.1-4.6 10.1-9.6C93.9 31.8 89.2 27.1 84 27zM56.8 74.7c-0.1 3.5 3.1 6.7 6.7 6.6 4-0.2 5.9-3 6.1-6.5 0.2-4.1-2.7-5.2-6.9-5.1C59.8 69.7 57 70.5 56.8 74.7zM39.6 48.4c0-3.1-2.1-4.7-5.2-4.7-3.1 0-5 2.1-5.1 5-0.1 3.5 3.1 3.6 5.5 4.4C37.8 52.8 39.6 51.2 39.6 48.4zM3.9 67.2c-0.1 1.6 1.4 2.3 2.7 2.4 1.9 0 3-1.3 3-3.2 0-1.6-1.4-1.6-2.5-1.6C5.5 64.9 4 65.4 3.9 67.2z" fill="#b3cdf8" data-fill-palette-color="accent"></path></g></svg></g></svg></g></svg></g></svg></g></svg></g><path d="M195.033 90.486L195.033 29.475 6.783 29.475 6.783 217.725 195.033 217.725 195.033 156.714 190.766 156.714 190.766 213.458 11.05 213.458 11.05 33.742 190.766 33.742 190.766 90.486Z" fill="#0c5ab4" stroke="transparent" data-fill-palette-color="tertiary"></path></svg></g><defs></defs></svg><rect width="395.52" height="247.2" fill="none" stroke="none" visibility="hidden"></rect></g></svg></g></svg>